<svg xmlns="http://www.w3.org/2000/svg" version="1.0" width="128" height="128" overflow="visible"><rect width="128" height="128" rx="16" fill="#092e20" stroke-width="4.063"/><g fill="#fff"><path d="M56.968 24.386h14.55v67.35c-7.464 1.417-12.944 1.984-18.896 1.984-17.763 0-27.022-8.03-27.022-23.432 0-14.834 9.752-24.47 25.038-24.47 2.362 0 4.157.189 6.33.755V24.386zm0 33.902c-1.7-.567-3.118-.756-4.913-.756-7.37 0-11.622 4.536-11.622 12.471 0 7.75 4.063 12 11.528 12 1.605 0 2.928-.094 5.007-.376z"/><path d="M94.666 46.855v33.732c0 11.62-.85 17.195-3.401 22.014-2.363 4.63-5.481 7.558-11.906 10.77l-13.51-6.425c6.424-3.023 9.542-5.666 11.526-9.731 2.079-4.157 2.74-8.977 2.74-21.637V46.855zm-14.55-22.392h14.55v14.93h-14.55z"/></g></svg>