<svg xmlns="http://www.w3.org/2000/svg" stroke-miterlimit="1.414" width="128" height="128" clip-rule="evenodd" fill-rule="evenodd" stroke-linejoin="round"><rect width="128" height="128" rx="16" fill="#1488c6"/><path d="M32.705 88.841c-3.22 0-6.143-2.633-6.143-5.846 0-3.212 2.634-5.846 6.143-5.846 3.502 0 6.143 2.634 6.143 5.846 0 3.213-2.93 5.846-6.143 5.846zM108.09 57c-.636-4.68-3.53-8.472-7.343-11.403l-1.483-1.172-1.2 1.462c-2.33 2.633-3.248 7.307-2.965 10.802.282 2.64 1.13 5.267 2.612 7.315-1.2.586-2.683 1.172-3.813 1.751-2.683.876-5.295 1.172-7.907 1.172H10.45l-.281 1.75c-.565 5.556.282 11.395 2.647 16.662l1.172 2.048v.282c7.06 11.693 19.628 16.946 33.325 16.946 26.335 0 47.94-11.39 58.177-35.938 6.708.297 13.485-1.461 16.663-7.887L123 59.33l-1.412-.876c-3.813-2.329-9.037-2.633-13.415-1.46zm-37.703-4.68h-11.43v11.4h11.437V52.31zm0-14.32h-11.43v11.39h11.437V38.005zm0-14.615h-11.43v11.39h11.437V23.39zm13.98 28.934h-11.36V63.72H84.4V52.31zm-42.362 0h-11.36V63.72h11.395V52.31zm14.262 0H44.969V63.72h11.367V52.31zm-28.383 0h-11.29V63.72h11.438V52.31zM56.266 38H44.969v11.39h11.367V38.006zm-14.333 0H30.636v11.39h11.367V38.006z" fill="#fff" fill-rule="nonzero"/></svg>