<svg xmlns="http://www.w3.org/2000/svg" xmlns:xlink="http://www.w3.org/1999/xlink" width="152.181" height="128"><defs><linearGradient id="q"><stop offset="0" stop-color="#33bdf2" stop-opacity=".698"/><stop offset="1" stop-color="#1dacd8"/></linearGradient><linearGradient id="p"><stop offset="0" stop-color="#05a1e6" stop-opacity=".247"/><stop offset="1" stop-color="#05a1e6"/></linearGradient><radialGradient cx="0" cy="0" r="1" fx="0" fy="0" id="a" gradientUnits="userSpaceOnUse" gradientTransform="matrix(-368.83783 3054.2361 3027.4705 178.24222 -35.956 775.328)" spreadMethod="pad"><stop offset="0" stop-color="#fff"/><stop offset=".907" stop-color="#9ca6b0"/><stop offset=".907" stop-color="#9ca6b0"/><stop offset="1" stop-color="#c2c6cc"/></radialGradient><linearGradient x1="0" y1="0" x2="1" y2="0" id="b" gradientUnits="userSpaceOnUse" gradientTransform="matrix(0 -29.6613 -29.6613 0 2008.51 86.026)" spreadMethod="pad"><stop offset="0" stop-color="#0994dc"/><stop offset=".35" stop-color="#66cef5"/><stop offset=".35" stop-color="#66cef5"/><stop offset=".846" stop-color="#127bca"/><stop offset=".846" stop-color="#127bca"/><stop offset="1" stop-color="#127bca"/></linearGradient><linearGradient x1="0" y1="0" x2="1" y2="0" id="c" gradientUnits="userSpaceOnUse" gradientTransform="matrix(0 -30.41722 -30.41722 0 2009.642 86.777)" spreadMethod="pad"><stop offset="0" stop-color="#0e76bc"/><stop offset=".36" stop-color="#36aee8"/><stop offset=".36" stop-color="#36aee8"/><stop offset=".846" stop-color="#00adef"/><stop offset=".846" stop-color="#00adef"/><stop offset="1" stop-color="#00adef"/></linearGradient><linearGradient x1="0" y1="0" x2="1" y2="0" id="r" gradientUnits="userSpaceOnUse" gradientTransform="matrix(0 24.20256 24.20256 0 2015.755 62.94)" spreadMethod="pad"><stop offset="0" stop-color="#1c63b7"/><stop offset=".5" stop-color="#33bdf2"/><stop offset="1" stop-color="#33bdf2" stop-opacity=".42"/></linearGradient><linearGradient x1="0" y1="0" x2="1" y2="0" id="d" gradientUnits="userSpaceOnUse" gradientTransform="matrix(0 -31.58095 -31.58095 0 2014.164 89.86)" spreadMethod="pad"><stop offset="0" stop-color="#166ab8"/><stop offset=".4" stop-color="#36aee8"/><stop offset=".4" stop-color="#36aee8"/><stop offset=".846" stop-color="#0798dd"/><stop offset=".846" stop-color="#0798dd"/><stop offset="1" stop-color="#0798dd"/></linearGradient><linearGradient x1="0" y1="0" x2="1" y2="0" id="e" gradientUnits="userSpaceOnUse" gradientTransform="matrix(0 -33.58215 -33.58215 0 2011.675 89.693)" spreadMethod="pad"><stop offset="0" stop-color="#124379"/><stop offset=".39" stop-color="#1487cb"/><stop offset=".39" stop-color="#1487cb"/><stop offset=".78" stop-color="#165197"/><stop offset=".78" stop-color="#165197"/><stop offset="1" stop-color="#165197"/></linearGradient><linearGradient x1="0" y1="0" x2="1" y2="0" id="o" gradientUnits="userSpaceOnUse" gradientTransform="matrix(0 23.57664 23.57664 0 2033.846 63.547)" spreadMethod="pad"><stop offset="0" stop-color="#136ab4"/><stop offset=".6" stop-color="#59caf5" stop-opacity=".549"/><stop offset="1" stop-color="#59caf5" stop-opacity=".235"/></linearGradient><linearGradient x1="0" y1="0" x2="1" y2="0" id="f" gradientUnits="userSpaceOnUse" gradientTransform="matrix(0 24.14058 24.14058 0 1991.092 62.953)" spreadMethod="pad"><stop offset="0" stop-color="#318ed5"/><stop offset="1" stop-color="#38a7e4"/></linearGradient><linearGradient x1="0" y1="0" x2="1" y2="0" id="n" gradientUnits="userSpaceOnUse" gradientTransform="matrix(0 23.46596 23.46596 0 1992.611 62.868)" spreadMethod="pad"><stop offset="0" stop-color="#05a1e6"/><stop offset="1" stop-color="#05a1e6" stop-opacity=".549"/></linearGradient><linearGradient x1="0" y1="0" x2="1" y2="0" id="g" gradientUnits="userSpaceOnUse" gradientTransform="matrix(0 19.8291 19.8291 0 1993.873 61.67)" spreadMethod="pad"><stop offset="0" stop-color="#1959a6"/><stop offset=".5" stop-color="#05a1e6"/><stop offset=".5" stop-color="#05a1e6"/><stop offset=".918" stop-color="#7ec5ea"/><stop offset="1" stop-color="#7ec5ea"/></linearGradient><linearGradient x1="0" y1="0" x2="1" y2="0" id="h" gradientUnits="userSpaceOnUse" gradientTransform="scale(-21.83203 21.83203) rotate(80 -47.4 -53)" spreadMethod="pad"><stop offset="0" stop-color="#165096"/><stop offset="1" stop-color="#0d82ca"/></linearGradient><linearGradient x1="0" y1="0" x2="1" y2="0" id="i" gradientUnits="userSpaceOnUse" gradientTransform="matrix(0 11.23593 11.23593 0 2029.809 75.097)" spreadMethod="pad"><stop offset="0" stop-color="#05a1e6"/><stop offset=".874" stop-color="#0495d6"/><stop offset="1" stop-color="#0495d6"/></linearGradient><linearGradient x1="0" y1="0" x2="1" y2="0" id="m" gradientUnits="userSpaceOnUse" gradientTransform="scale(-26.30915 26.30915) rotate(-80 -36.698 47.753)" spreadMethod="pad"><stop offset="0" stop-color="#38a7e4" stop-opacity=".329"/><stop offset=".962" stop-color="#0e88d3"/><stop offset=".962" stop-color="#0e88d3"/><stop offset="1" stop-color="#0e88d3"/></linearGradient><linearGradient x1="0" y1="0" x2="1" y2="0" id="j" gradientUnits="userSpaceOnUse" gradientTransform="matrix(0 -24.51245 -24.51245 0 2031 86.462)" spreadMethod="pad"><stop offset="0" stop-color="#168cd4"/><stop offset=".5" stop-color="#1c87cc"/><stop offset="1" stop-color="#154b8d"/></linearGradient><linearGradient x1="0" y1="0" x2="1" y2="0" id="l" gradientUnits="userSpaceOnUse" gradientTransform="scale(6.1127 -6.1127) rotate(22.527 199.29 814.197)" spreadMethod="pad"><stop offset="0" stop-color="#97d6ee"/><stop offset=".703" stop-color="#55c1ea"/><stop offset="1" stop-color="#55c1ea"/></linearGradient><linearGradient x1="0" y1="0" x2="1" y2="0" id="k" gradientUnits="userSpaceOnUse" gradientTransform="matrix(4.45943 2.0216 2.0216 -4.45943 2002.999 84.154)" spreadMethod="pad"><stop offset="0" stop-color="#7accec"/><stop offset="1" stop-color="#3fb7ed"/></linearGradient><linearGradient x1="0" y1="0" x2="1" y2="0" id="s" gradientUnits="userSpaceOnUse" gradientTransform="matrix(0 -23.97563 -23.97563 0 2027.682 85.106)" spreadMethod="pad"><stop offset="0" stop-color="#1da7e7"/><stop offset="1" stop-color="#37abe7" stop-opacity="0"/></linearGradient><linearGradient x1="0" y1="0" x2="1" y2="0" id="t" xlink:href="#b" gradientUnits="userSpaceOnUse" gradientTransform="rotate(90 -521.525 1511.687) scale(66.25946)" spreadMethod="pad"/><linearGradient x1="0" y1="0" x2="1" y2="0" id="u" xlink:href="#c" gradientUnits="userSpaceOnUse" gradientTransform="rotate(90 -519.423 1512.111) scale(67.94809)" spreadMethod="pad"/><linearGradient x1="0" y1="0" x2="1" y2="0" id="w" xlink:href="#d" gradientUnits="userSpaceOnUse" gradientTransform="matrix(0 70.5477 -70.5477 0 1002.791 2024.65)" spreadMethod="pad"/><linearGradient x1="0" y1="0" x2="1" y2="0" id="x" xlink:href="#e" gradientUnits="userSpaceOnUse" gradientTransform="matrix(0 75.01814 -75.01814 0 997.23 2025.02)" spreadMethod="pad"/><linearGradient x1="0" y1="0" x2="1" y2="0" id="B" xlink:href="#f" gradientUnits="userSpaceOnUse" gradientTransform="matrix(0 -53.9269 53.9269 0 951.25 2084.754)" spreadMethod="pad"/><linearGradient x1="0" y1="0" x2="1" y2="0" id="D" xlink:href="#g" gradientUnits="userSpaceOnUse" gradientTransform="rotate(-90 1522.541 565.078) scale(44.29562)" spreadMethod="pad"/><linearGradient x1="0" y1="0" x2="1" y2="0" id="E" xlink:href="#h" gradientUnits="userSpaceOnUse" gradientTransform="scale(-48.7699) rotate(80 15.639 -33.093)" spreadMethod="pad"/><linearGradient x1="0" y1="0" x2="1" y2="0" id="F" xlink:href="#i" gradientUnits="userSpaceOnUse" gradientTransform="rotate(-90 1547.683 509.944) scale(25.0996)" spreadMethod="pad"/><linearGradient x1="0" y1="0" x2="1" y2="0" id="H" xlink:href="#j" gradientUnits="userSpaceOnUse" gradientTransform="rotate(90 -495.92 1536.32) scale(54.75761)" spreadMethod="pad"/><linearGradient x1="0" y1="0" x2="1" y2="0" id="J" xlink:href="#k" gradientUnits="userSpaceOnUse" gradientTransform="matrix(4.45943 2.0216 2.0216 -4.45943 2002.999 84.154)" spreadMethod="pad"/><linearGradient x1="0" y1="0" x2="1" y2="0" id="I" xlink:href="#l" gradientUnits="userSpaceOnUse" gradientTransform="scale(6.1127 -6.1127) rotate(22.527 199.29 814.197)" spreadMethod="pad"/><linearGradient x1="0" y1="0" x2="1" y2="0" id="C" xlink:href="#n" gradientUnits="userSpaceOnUse" gradientTransform="rotate(-90 1519.795 565.15) scale(52.41988)" spreadMethod="pad"/><linearGradient x1="937.661" y1="2075.999" x2="959.674" y2="2075.999" id="A" xlink:href="#p" gradientUnits="userSpaceOnUse" gradientTransform="matrix(1.7871 0 0 1.7871 -746.227 -1649.375)"/><linearGradient x1="958.722" y1="2068.957" x2="964.657" y2="2068.957" id="y" xlink:href="#q" gradientUnits="userSpaceOnUse" gradientTransform="matrix(1.7871 0 0 1.7871 -746.227 -1649.375)"/><linearGradient x1="0" y1="0" x2="1" y2="0" id="v" xlink:href="#r" gradientUnits="userSpaceOnUse" gradientTransform="rotate(-90 1545.564 539.219) scale(54.06535)" spreadMethod="pad"/><linearGradient x1="0" y1="0" x2="1" y2="0" id="K" xlink:href="#s" gradientUnits="userSpaceOnUse" gradientTransform="matrix(0 53.55843 -53.55843 0 1032.987 2035.266)" spreadMethod="pad"/><linearGradient x1="0" y1="0" x2="1" y2="0" id="G" xlink:href="#m" gradientUnits="userSpaceOnUse" gradientTransform="scale(-58.7712) rotate(-80 -29.513 -6.631)" spreadMethod="pad"/><linearGradient x1="0" y1="0" x2="1" y2="0" id="z" xlink:href="#o" gradientUnits="userSpaceOnUse" gradientTransform="rotate(-90 1565.092 518.335) scale(52.66714)" spreadMethod="pad"/></defs><g transform="translate(-922.825 -2023.54)"><rect width="152.181" height="128" x="922.825" y="2023.541" ry="0" rx="16" fill="#fff" stroke-width=".443"/><path d="M946.272 2139.203c0 .945-.337 1.763-1.019 2.453a3.345 3.345 0 0 1-2.47 1.034c-.945 0-1.75-.346-2.409-1.034a3.43 3.43 0 0 1-.987-2.453c0-.971.328-1.791.987-2.47a3.222 3.222 0 0 1 2.409-1.02c.967 0 1.791.343 2.47 1.033.682.69 1.019 1.51 1.019 2.457M989.488 2141.98h-6.295l-22.85-35.288a16.194 16.194 0 0 1-1.386-2.78h-.187c.162.946.245 2.974.245 6.081v31.987h-5.189v-44.273h6.735l22.167 34.732c.882 1.379 1.485 2.366 1.791 2.96h.124c-.206-1.273-.313-3.444-.313-6.51v-31.182h5.158v44.273zM1022.755 2141.98h-23.464v-44.273h22.446v4.691h-17.261v14.728h15.994v4.694h-15.994v15.467h18.28zM1058.347 2102.399h-12.753v39.582h-5.187v-39.582h-12.778v-4.693h30.718z" stroke-width=".443"/><path d="M977.707 2043.691c5.006 15.31 6.902 42.618 21.541 42.618 1.115 0 2.24-.109 3.37-.324-13.306-3.102-14.883-30.115-23.003-44.103a67.378 67.378 0 0 0-1.908 1.81" fill="url(#t)" stroke-width=".443"/><path d="M979.615 2041.882c8.12 13.989 9.697 41 23.004 44.103a21.182 21.182 0 0 0 3.143-.849c-11.944-5.852-15.246-32.082-24.468-44.71-.558.464-1.119.951-1.68 1.456" fill="url(#u)" stroke-width=".443"/><path d="M991.314 2033.563c-1.112 0-2.24.109-3.373.324-2.962.558-5.97 1.834-9.005 3.764a22.354 22.354 0 0 1 2.36 2.774c3.084-2.56 6.15-4.452 9.203-5.589a20.514 20.514 0 0 1 3.433-.954c-.826-.21-1.697-.32-2.618-.32" fill="#14559a" stroke-width=".443"/><path d="M1015.086 2079.742a53.677 53.677 0 0 0 3.673-3.22c-5.087-15.237-6.908-42.937-21.649-42.937-1.054 0-2.118.1-3.179.295 13.428 3.34 15.148 32.554 21.155 45.862" fill="url(#v)" stroke-width=".443"/><path d="M993.932 2033.881a10.59 10.59 0 0 0-2.618-.319l5.797.022c-1.055 0-2.118.098-3.18.297" fill="#3092c4" stroke-width=".443"/><path d="M1014.829 2082.978a21.837 21.837 0 0 1-1.662-1.796c-2.48 1.756-4.95 3.088-7.406 3.954.874.427 1.79.744 2.762.94.752.155 1.532.233 2.352.233 2.754 0 4.932-.326 6.786-1.215-1.02-.552-1.957-1.267-2.832-2.116" fill="#1969bc" stroke-width=".443"/><path d="M990.498 2034.839c12.027 6.29 13.073 34.777 22.67 46.344.643-.454 1.28-.934 1.916-1.441-6.007-13.308-7.725-42.525-21.15-45.862-1.146.215-2.29.532-3.436.959" fill="url(#w)" stroke-width=".443"/><path d="M981.294 2040.426c9.222 12.628 12.524 38.858 24.468 44.71 2.455-.866 4.926-2.198 7.405-3.954-9.596-11.566-10.642-40.053-22.67-46.343-3.053 1.134-6.118 3.026-9.203 5.586" fill="url(#x)" stroke-width=".443"/><path d="M971.807 2043.323c-1.445 3.268-2.922 7.564-4.707 13.17 3.55-5.001 7.088-9.31 10.607-12.801-.485-1.49-1.006-2.864-1.566-4.089a52.864 52.864 0 0 0-4.334 3.72" fill="url(#y)" stroke-width=".443"/><path d="M977.422 2038.661a49.49 49.49 0 0 0-1.28.943c.561 1.224 1.08 2.598 1.564 4.088a74.155 74.155 0 0 1 1.908-1.81c-.682-1.17-1.405-2.252-2.192-3.221" fill="#2b74b1" stroke-width=".443"/><path d="M978.937 2037.65c-.505.32-1.008.658-1.515 1.01.786.97 1.51 2.051 2.194 3.224.56-.507 1.121-.996 1.68-1.459a22.347 22.347 0 0 0-2.36-2.774" fill="#125a9e" stroke-width=".443"/><path d="M1060.972 2032.397c-6.802 26.232-21.01 47.302-32.92 52.614h-.023c-.217.1-.432.188-.644.275-.029.018-.056.019-.078.031-.063.026-.12.045-.183.07-.029.018-.056.023-.083.035-.1.036-.199.067-.297.105-.042.018-.083.028-.123.044a1.644 1.644 0 0 1-.147.049c-.045.018-.091.031-.143.05-.042.018-.087.026-.127.044-.087.026-.167.046-.255.077-.036 0-.069.019-.107.028-.054.018-.114.031-.172.046-.04.018-.074.023-.117.032-.06.018-.128.035-.187.049-.081.018-.152.035-.228.05.538.199 1.099.3 1.704.3 11.295 0 22.683-20.242 41.525-53.902h-7.398z" fill="url(#z)" stroke-width=".443"/><path d="M964.647 2034.627c.008 0 .016-.018.02-.018.01 0 .023 0 .028-.018h.014c.063-.022.12-.046.183-.07.016 0 .024 0 .036-.018.016 0 .031-.018.047-.02l.197-.07h.01c.15-.045.288-.1.433-.152.02 0 .04-.018.065-.018.06-.019.123-.04.185-.055.03-.018.058-.018.085-.027.065-.019.128-.04.188-.055.027 0 .051-.018.071-.019.208-.058.413-.11.621-.16.03 0 .054-.019.085-.02.06-.018.116-.027.181-.036.027-.018.058-.018.09-.027.06-.018.118-.019.182-.035h.043c.125-.026.252-.046.377-.07h.076c.06-.018.114-.019.175-.03.033 0 .067-.019.098-.019.056 0 .112-.018.167-.026.03 0 .058 0 .092-.018.132-.018.268-.024.407-.036a12.75 12.75 0 0 0-1.202-.063c-12.72 0-30.245 23.601-38.139 54.165h1.521a442.587 442.587 0 0 0 6.872-12.769c5.528-21.648 16.79-36.412 26.793-40.323" fill="url(#A)" stroke-width=".443"/><path d="M971.807 2043.323a52.813 52.813 0 0 1 4.334-3.72 20.453 20.453 0 0 0-1.032-1.994c-1.164 1.411-2.227 3.275-3.302 5.714M972.852 2034.806c.831.697 1.575 1.656 2.256 2.804.215-.264.431-.507.657-.735a12.752 12.752 0 0 0-3.074-2.151c.045.024.09.045.136.064 0 0 .018.018.025.018" fill="#0d82ca" stroke-width=".443"/><path d="M937.855 2074.95c11.598-22.35 17.093-36.495 26.793-40.324-10.001 3.914-21.265 18.678-26.793 40.324" fill="url(#B)" stroke-width=".443"/><path d="M975.764 2036.874c-.225.23-.44.472-.657.735.365.61.704 1.274 1.035 1.995.429-.328.855-.639 1.28-.943a17.413 17.413 0 0 0-1.658-1.787" fill="#127bca" stroke-width=".443"/><path d="M943.12 2087.618c-.072.018-.143.018-.21.026h-.04c-.06 0-.123.018-.18.018h-.028c-.145.018-.288.018-.427.03h-.045c11.74-.328 17.105-6.205 19.768-14.73 2.024-6.463 3.686-11.906 5.142-16.475-4.916 6.92-9.856 15.17-14.821 24.412-2.395 4.454-6.036 6.315-9.16 6.713" fill="url(#C)" stroke-width=".443"/><path d="M943.12 2087.614c3.123-.398 6.764-2.256 9.159-6.713 4.966-9.24 9.907-17.491 14.82-24.412 1.786-5.609 3.26-9.902 4.708-13.17-9.79 9.32-19.62 24.816-28.687 44.29" fill="url(#D)" stroke-width=".443"/><path d="M937.854 2074.95c-2.075 4.001-4.345 8.264-6.871 12.77h4.425a108.16 108.16 0 0 1 2.446-12.767" fill="#05a1e6" stroke-width=".443"/><path d="M968.396 2033.661c-.036 0-.063.018-.094.018-.053.018-.11.018-.165.023-.033 0-.065 0-.098.018-.06.018-.117.02-.175.031-.027 0-.053 0-.076.018l-.377.066h-.043a1.453 1.453 0 0 1-.183.036c-.031.018-.062.018-.091.024-.06.018-.121.026-.18.036-.03.018-.055.018-.084.02-.208.05-.413.103-.621.16-.022 0-.045.018-.071.022l-.188.055c-.027.018-.058.018-.085.024-.062.018-.125.036-.185.055-.025 0-.045.018-.067.018-.143.054-.284.108-.431.152-.063.02-.13.045-.197.068-.027.018-.051.022-.083.034-.062.02-.125.045-.183.068-.022.018-.045.02-.06.03-9.7 3.828-15.195 17.973-26.793 40.323a107.684 107.684 0 0 0-2.446 12.767h.62c1.75 0 2.244-.018 4.256-.018h1.951c.138-.018.281-.018.426-.03h.027c.06 0 .12-.019.179-.019h.042c.065 0 .139-.017.21-.025 9.068-19.475 18.897-34.972 28.688-44.291 1.076-2.44 2.137-4.303 3.299-5.712-.68-1.149-1.423-2.11-2.254-2.806 0 0-.022 0-.024-.018-.047-.02-.092-.043-.139-.067-.047-.026-.087-.045-.136-.07a1.621 1.621 0 0 1-.134-.063c-.058-.018-.105-.043-.156-.067l-.123-.054c-.088-.035-.175-.07-.257-.108-.038-.018-.074-.027-.11-.04-.06-.023-.13-.05-.192-.078-.031-.018-.067-.022-.103-.034-.091-.03-.18-.063-.266-.09h-.022c-.102-.036-.203-.06-.308-.088-.024-.018-.045-.018-.069-.022-.092-.026-.172-.05-.26-.073-.021 0-.042-.018-.06-.018-.21-.055-.426-.1-.645-.14-.023 0-.045-.019-.067-.019a3.377 3.377 0 0 0-.28-.045c-.022-.018-.035-.018-.055-.018a6.55 6.55 0 0 0-.33-.043h-.059c-.09-.018-.172-.019-.254-.028-.141.018-.275.026-.407.037" fill="url(#E)" stroke-width=".443"/><path d="M1034.402 2046.92c-2.231 7.148-4.038 13.045-5.611 17.897 6.123-8.426 12.154-19.026 17.898-31.258-6.7 2.104-10.274 6.92-12.287 13.36" fill="url(#F)" stroke-width=".443"/><path d="M1028.985 2084.564c-.312.16-.625.311-.933.447 11.91-5.312 26.118-26.382 32.92-52.614h-1.378c-15.628 27.917-20.655 46.605-30.609 52.168" fill="url(#G)" stroke-width=".443"/><path d="M1021.208 2082.22c2.59-3.164 4.702-8.54 7.584-17.403-3.324 4.566-6.67 8.491-10.02 11.692 0 .018 0 .018-.017.028.73 2.19 1.532 4.122 2.446 5.681" fill="#079ae1" stroke-width=".443"/><path d="M1021.208 2082.22c-.883 1.076-1.817 1.896-2.855 2.503-.228.133-.458.257-.693.371 1.097.592 2.294.988 3.635 1.146.196.02.39.037.594.051h.036c.09 0 .187 0 .286.018H1023.18c.036 0 .073 0 .109-.018.069 0 .143 0 .214-.018h.107c.073 0 .154-.018.232-.026h.018c.023 0 .05-.018.072-.018.082-.018.168-.026.248-.037h.073c.092-.018.186-.028.28-.046h.045c.187-.036.37-.072.556-.118-1.537-.563-2.824-1.89-3.932-3.78" fill="#1969bc" stroke-width=".443"/><path d="M999.248 2086.31c1.115 0 2.24-.11 3.371-.326 1.046-.19 2.093-.48 3.143-.847.874.426 1.79.744 2.76.94.752.154 1.534.233 2.354.233z" fill="#1e5cb3" stroke-width=".443"/><path d="M1010.876 2086.31c2.752 0 4.932-.326 6.784-1.216a10.04 10.04 0 0 0 3.635 1.146c.196.02.39.038.594.054h.036c.09 0 .188 0 .286.017H1022.545h-11.677z" fill="#1e5cb3" stroke-width=".443"/><path d="M1022.551 2086.31h.637c.038 0 .074 0 .11-.018.069 0 .143 0 .216-.018H1023.62c.073 0 .154-.018.23-.024h.02c.022 0 .045-.018.068-.018.082-.018.168-.024.248-.037.027 0 .05 0 .077-.018.091-.018.186-.027.28-.045h.044c.188-.036.371-.072.557-.118.538.199 1.099.3 1.704.3l-4.294.017z" fill="#1d60b5" stroke-width=".443"/><path d="M1018.762 2076.539v-.019a53.574 53.574 0 0 1-3.672 3.22c-.64.507-1.276.987-1.92 1.44a21.805 21.805 0 0 0 1.663 1.796c.876.85 1.811 1.564 2.832 2.116.233-.114.465-.24.69-.371 1.041-.608 1.975-1.427 2.858-2.504-.914-1.56-1.716-3.492-2.446-5.68" fill="#175fab" stroke-width=".443"/><path d="M1055.229 2032.397h-6.938c-.375.018-.74.031-1.1.054-.169.364-.343.729-.51 1.095-5.744 12.232-11.775 22.832-17.898 31.258-2.88 8.862-4.993 14.239-7.585 17.402 1.108 1.89 2.397 3.22 3.93 3.782.045-.018.08-.018.12-.027h.024c.027 0 .055-.018.084-.018.063-.018.13-.029.192-.049.04-.018.074-.019.114-.032.058-.018.118-.031.172-.045.036-.018.072-.023.108-.031.09-.029.17-.05.254-.077a.877.877 0 0 1 .128-.044c.05-.018.1-.031.143-.051.051-.018.103-.027.148-.046.04-.018.083-.03.12-.045.1-.036.199-.067.3-.105.026 0 .053-.024.082-.031.06-.026.123-.045.183-.072.022-.018.05-.019.078-.028.21-.088.427-.177.644-.275h.023c.308-.136.62-.288.931-.447 9.957-5.562 14.983-24.25 30.611-52.167h-4.365z" fill="url(#H)" stroke-width=".443"/><path d="M968.803 2033.624c.025 0 .047 0 .071.018.06 0 .121 0 .181.019h.06c.11.018.22.027.331.044.02 0 .038 0 .056.018.092.018.186.032.28.046.02 0 .046.018.069.018.214.043.433.087.643.143.02 0 .04.018.058.018.09.022.17.049.26.073.026 0 .046.018.071.022.105.027.203.054.306.087.004 0 .01 0 .023.018.087.027.176.06.268.09.035.019.069.027.102.036.063.027.132.054.193.078.035 0 .07.024.109.037.082.037.17.072.254.107.045.018.083.037.126.054.049.026.1.05.154.066.044.021.093.045.136.064.047.026.091.045.136.07 1.108.544 2.129 1.27 3.074 2.15a9.963 9.963 0 0 1 1.09-.989c-2.066-1.465-4.407-2.3-7.108-2.3-.313 0-.626.017-.943.04" fill="#7dcbec" stroke-width=".443"/><path d="M975.764 2036.874c.579.539 1.133 1.14 1.658 1.787.507-.353 1.01-.692 1.514-1.01a15.989 15.989 0 0 0-2.084-1.766c-.377.292-.74.623-1.088.99" fill="#5ec5ed" stroke-width=".443"/><path d="M1998.949 85.842c.142.012.282.017.422.017 1.209 0 2.257-.374 3.182-1.029.976.77 2.156 1.039 3.795 1.039h-7.937c.183 0 .362-.011.538-.027" fill="url(#I)" transform="matrix(2.23387 0 0 -2.23387 -3496.588 2225.383)"/><path d="M2006.348 85.869c-1.639 0-2.819-.269-3.795-1.039a7.21 7.21 0 0 0 .932-.791c1.359.864 2.705 1.436 4.032 1.686a8.182 8.182 0 0 0 1.509.144z" fill="url(#J)" transform="matrix(2.23387 0 0 -2.23387 -3496.588 2225.383)"/><path d="M1028.791 2064.822c1.575-4.857 3.377-10.752 5.614-17.903 2.015-6.442 5.582-11.258 12.281-13.36.177-.36.345-.73.517-1.095-10.922.655-16.026 6.21-18.595 14.438-4.493 14.363-7.213 23.674-9.834 29.607 3.347-3.199 6.693-7.126 10.017-11.687" fill="url(#K)" stroke-width=".443"/></g></svg>