<svg xmlns="http://www.w3.org/2000/svg" width="128" height="128"><path d="M125.586 58.298L69.7 2.414a8.243 8.243 0 0 0-11.658 0L46.44 14.021l14.72 14.72c3.42-1.156 7.343-.38 10.07 2.347 2.742 2.745 3.511 6.7 2.326 10.135L87.744 55.41c3.433-1.184 7.392-.418 10.134 2.327A9.81 9.81 0 0 1 84.002 71.61a9.811 9.811 0 0 1-2.133-10.668L68.636 47.71v34.821a9.832 9.832 0 0 1 2.592 1.856c3.831 3.83 3.831 10.038 0 13.873-3.83 3.83-10.042 3.83-13.87 0-3.83-3.836-3.83-10.044 0-13.873a9.803 9.803 0 0 1 3.214-2.141V47.1a9.724 9.724 0 0 1-3.214-2.141c-2.901-2.9-3.6-7.16-2.112-10.724l-14.51-14.514L2.414 58.04a8.247 8.247 0 0 0 0 11.661l55.889 55.886c3.217 3.219 8.436 3.219 11.658 0l55.625-55.627a8.247 8.247 0 0 0 0-11.66z" fill="#f05133"/></svg>