<svg xmlns="http://www.w3.org/2000/svg" width="128" height="128" overflow="visible"><rect width="128" height="128" rx="16" fill="#fff"/><path d="M49.169 92.387s-4.316 2.512 3.075 3.36c8.955 1.022 13.53.875 23.396-.99 0 0 2.599 1.626 6.222 3.034-22.123 9.478-50.068-.549-32.693-5.404zM46.464 80.017s-4.841 3.584 2.555 4.349c9.567.987 17.119 1.068 30.194-1.448 0 0 1.805 1.833 4.646 2.834-26.743 7.823-56.53.616-37.395-5.735z" clip-rule="evenodd" fill="#0074bd" fill-rule="evenodd" stroke-width=".25"/><path d="M69.252 59.03c5.454 6.278-1.43 11.922-1.43 11.922s13.84-7.143 7.485-16.093c-5.937-8.342-10.489-12.486 14.154-26.777 0 0-38.683 9.659-20.209 30.948z" clip-rule="evenodd" fill="#ea2d2e" fill-rule="evenodd" stroke-width=".25"/><path d="M98.51 101.539s3.195 2.633-3.518 4.67c-12.767 3.867-53.145 5.033-64.36.155-4.029-1.755 3.53-4.187 5.908-4.7 2.48-.537 3.896-.44 3.896-.44-4.484-3.157-28.98 6.202-12.442 8.886 45.102 7.31 82.214-3.293 70.516-8.571zM51.246 67.198s-20.536 4.88-7.272 6.652c5.602.75 16.763.578 27.168-.295 8.5-.714 17.03-2.24 17.03-2.24S85.179 72.6 83.01 74.08c-20.858 5.486-61.145 2.931-49.546-2.678 9.806-4.743 17.783-4.204 17.783-4.204zM88.088 87.79c21.202-11.015 11.398-21.601 4.555-20.175-1.673.35-2.424.652-2.424.652s.623-.977 1.81-1.397c13.538-4.757 23.946 14.035-4.365 21.477 0 0 .326-.295.424-.558z" clip-rule="evenodd" fill="#0074bd" fill-rule="evenodd" stroke-width=".25"/><path d="M75.308 5S87.047 16.746 64.17 34.803c-18.346 14.49-4.183 22.75-.007 32.19-10.71-9.661-18.565-18.168-13.296-26.084C58.604 29.29 80.043 23.656 75.307 5z" clip-rule="evenodd" fill="#ea2d2e" fill-rule="evenodd" stroke-width=".25"/><path d="M53.33 117.646c20.347 1.3 51.6-.724 52.34-10.353 0 0-1.422 3.65-16.817 6.546-17.368 3.27-38.794 2.89-51.498.792 0 0 2.603 2.154 15.975 3.015z" clip-rule="evenodd" fill="#0074bd" fill-rule="evenodd" stroke-width=".25"/></svg>