<svg xmlns="http://www.w3.org/2000/svg" version="1.0" width="128" height="128"><path d="M62.732.002c-3.498 0-4.085.044-6.41.652-2.868.76-4.54 1.717-6.496 3.694-1 .978-1.5 1.608-1.978 2.412-1.195 2.064-1.977 4.41-2.455 7.583-.26 1.543-.283 2.108-.26 5.932 0 4.02.477 16.275.76 19.947.195 2.433.108 2.694-1.934 5.54-.717 1-1.717 2.456-2.216 3.238-1.37 2.108-3.303 4.824-4.89 6.91-2.933 3.78-3.671 5.171-5.518 10.19-1.782 4.911-2.869 7.345-5.498 12.45-1.347 2.565-1.695 3.651-1.76 5.477-.087 1.564.13 3.737.37 4.128.195.26.434.326.912.196-.065.065-.108.108-.152.13-.76.5-1.63 1.564-2.173 2.911-.021.022-.021.066-.043.087-.196.305-.413.826-.674 1.63-.782 2.216-1.434 3.194-2.607 3.824-1 .543-1.89.674-4.498.674-2.694 0-3.28.13-4.085.826-1.434 1.216-1.651 3.628-.673 6.974.89 3.02.847 4.411-.305 7.8-.63 1.87-.717 2.26-.717 3.065 0 .608.065 1.064.196 1.347.282.586 1.173 1.304 2.042 1.673.978.37 5.889 1.586 9.409 2.281 5.454 1.109 7.41 1.695 12.472 3.716 4.498 1.782 6.41 2.434 7.93 2.673.718.108 2.195-.022 2.869-.283.804-.282 1.564-.804 3.238-2.216 2.955-2.477 4.563-3.26 7.865-3.781 1.239-.196 2.369-.217 11.82-.217 5.737 0 10.8.043 11.256.108 1.065.13 1.477.478 2.368 2.043 1.37 2.455 3.042 3.542 6.084 3.998 1.434.217 3.89.239 5.02.065 2.477-.413 3.715-1.151 6.518-3.954 3.26-3.281 6.301-5.346 10.582-7.214 2.173-.956 3.15-1.5 5.715-3.238 3.15-2.13 3.759-2.803 3.759-4.193 0-1.456-.783-2.369-3.673-4.281-2.759-1.825-3.998-2.933-5.15-4.628-.803-1.195-1.086-2.108-1.194-3.89-.044-.825-.13-1.39-.24-1.738-.108-1.238-.608-2.65-1.499-3.107-1.238-.652-1.673-.456-2.085-.196 1.39-1.564 1.846-2.303 2.303-3.65.804-2.39.63-5.063-.76-12.016-1.609-8.083-4.346-13.863-9.996-21.12-3.585-4.628-5.04-6.931-8.54-13.493-1.737-3.281-2.237-4.411-2.65-6.171-.608-2.542-.89-4.824-1.347-11.32-.435-6.063-.739-8.562-1.304-10.67C80.94 7.064 76.443 2.718 70.163.915c-2.672-.76-3.824-.913-7.43-.913z" fill="#fff" stroke-width=".217"/><g fill="#f8bf11"><path d="M76.076 35.857c0 3.03-3.61 3.67-5.361 4.757-1.63 1.51-11.012 5.772-13.5 5.772-3.996-.845-8.862-6.81-9.49-10.77 0-2.307 2.934-4.154 4.576-5.663 1.63-1.51 3.514-2.934 6.726-2.33 2.487 0 6.375 1.183 8.005 2.692 3.26 1.087 9.044 1.787 9.044 5.542zM10.343 116.84c3.713 1.69 12.364 3.851 15.407 4.213 2.04.846 15.515 3.985 18.618 3.985 4.6-3.26 5.361-8.199 4.07-13.197-5.736-9.261-10.167-21.396-20.89-25.574-1.074.531-1.955 1.968-2.342 2.21-.773.495-1.63 1.57-2.173 2.91-.568 1.4-1.087 3.115-1.72 5.614-1.238 2.488-6.296.242-9.76 2.053-1.263 3.827.892 13.27-1.21 17.785zM110.15 102.652c2.318 1.896 5.952 3.308 7.594 6.46-3.127 3.73-5.82 5.047-9.78 6.93-5.434 2.584-8.838 5.011-11.326 6.702-2.487 2.173-8.259 3.501-10.879 3.139-1.654-1.087-3.513-14.284-2.91-18.594 0-2.295-2.813-11.483 1.69-17.086 4.36-.833 8.103 3.152 10.868 5.869 2.282-1.534 5.892-3.888 8.62-4.48.894-.205.93-1.135 2.802-.157.893.47 1.413 1.944 1.51 3.2.156 2.028.361 6.327 1.81 8.017z"/></g><path d="M41.483 127.936c-1.522-.242-3.441-.846-7.933-2.657-5.071-2.052-7.015-2.535-12.473-3.743-3.513-.603-8.441-1.871-9.403-2.258-.87-.35-1.775-1.074-2.052-1.666-.129-.265-.197-.736-.197-1.34 0-.821.088-1.183.72-3.055 1.15-3.405 1.205-4.793.311-7.812-.989-3.345-.757-5.76.668-6.979.805-.688 1.392-.809 4.081-.809 2.613 0 3.496-.133 4.507-.688 1.166-.64 1.821-1.606 2.594-3.828.495-1.437.821-2.004 1.135-2.004.254 0 .47.628.47 1.388 0 .677-.76 3.526-1.134 4.263-.398.797-.942 1.412-1.568 1.775-1.17.688-3.421.869-5.892.495-1.578-.254-2.483-.193-3.087.169-.893.543-1.04 1.763-.391 3.272 1.256 2.91 1.496 3.538 1.761 4.516.316 1.17.366 2.197.168 3.417-.197 1.207-.543 1.968-1.568 3.405-.529.748-1.013 1.545-1.077 1.787-.181.652.086 1.147.805 1.521.611.302 9.324 2.56 15.48 3.948 1.895.483 5.348 1.328 7.667 1.932a97.252 97.252 0 0 0 5.373 1.208c1.944.241 3.743 0 4.986-.725 1.727-1.087 2.934-3.586 3.08-6.496.096-1.92-.327-3.646-1.45-5.88-.857-1.715-1.28-2.379-5.348-8.524-7.185-10.819-10.3-14.43-12.956-14.985-.857-.169-1.425-.072-2.572.447-1.099.495-1.473.52-1.739.12-.253-.386-.459-2.547-.386-4.117.084-1.823.435-2.91 1.763-5.493 2.632-5.096 3.707-7.535 5.506-12.437 1.847-5.023 2.596-6.411 5.505-10.203a114.484 114.484 0 0 0 4.89-6.894c.52-.785 1.522-2.246 2.234-3.248 2.029-2.85 2.125-3.115 1.932-5.542-.29-3.659-.773-15.926-.773-19.935-.012-3.815.013-4.395.254-5.94.495-3.16 1.268-5.53 2.475-7.582.46-.802.978-1.436 1.956-2.423 1.956-1.973 3.647-2.92 6.508-3.668 2.33-.61 2.922-.671 6.412-.668 3.598.003 4.745.146 7.426.916 6.278 1.804 10.782 6.153 12.291 11.88.556 2.113.857 4.624 1.292 10.685.459 6.484.737 8.766 1.352 11.326.411 1.739.906 2.886 2.645 6.158 3.501 6.568 4.95 8.863 8.536 13.475 5.651 7.269 8.38 13.04 9.998 21.13 1.388 6.955 1.557 9.623.76 12.026-.482 1.449-.953 2.173-2.608 3.997-3.477 3.851-7.353 6.266-10.01 6.266-2.414 0-4.624-1.642-6.205-4.624-.737-1.642-.64-2.959-2.753-2.488-1.027.278-1.872 1.522-2.125 3.128-.194 1.147-.157 5.542.048 6.64.084.496.374 1.969.616 3.26.434 2.234.459 2.476.459 4.77 0 2.113-.049 2.753-.399 5.071-.326 2.174-.386 2.922-.35 4.105.048 1.377.072 1.51.483 2.367.495 1.087 1.582 2.294 2.523 2.898 2.077 1.328 4.975 1.449 7.414.241.688-.362 1.69-1.086 3.38-2.415 2.742-2.221 4.782-3.634 6.328-4.419.591-.29 2.016-.833 3.163-1.207 4.758-1.534 6.93-2.451 8.138-3.453 1.437-1.172 2.125-2.44 1.872-3.393-.326-1.184-1.69-2.029-4.48-2.753-2.1-.556-2.608-.81-3.465-1.751-.76-.833-1.352-2.029-1.787-3.622-.423-1.558-.483-4.081-.12-5.072.253-.7.506-1.026.796-1.026.338 0 .507.592.604 2.174.12 1.762.398 2.692 1.207 3.875 1.147 1.703 2.367 2.802 5.132 4.637 2.886 1.908 3.683 2.825 3.683 4.286 0 1.389-.616 2.065-3.756 4.178-2.571 1.739-3.537 2.294-5.71 3.236-4.287 1.871-7.33 3.948-10.602 7.208-2.801 2.777-4.02 3.623-6.52 3.985-1.123.12-3.574.12-5.011-.12-3.043-.363-4.697-1.45-6.085-3.985-.882-1.57-1.292-1.932-2.355-2.053-.459 0-5.53-.12-11.277-.12-9.442 0-10.577.12-11.797.24-3.308.604-4.938 1.329-7.884 3.744-1.667 1.449-2.427 1.932-3.236 2.294-.664.241-2.15.362-2.862.241zm10.89-7.788c.266-.23.665-.76.894-1.184.362-.676.41-.881.447-1.92.085-1.907-.326-2.982-1.678-4.406-.93-.978-1.063-1.401-.532-1.643.495-.217 1.123.06 2.246 1.003 2.125 1.799 3.381 2.1 8.018 2.004 4.986-.12 7.703-.64 10.444-2.016 1.775-.894 2.946-1.908 4.431-3.876 1.05-1.377 1.521-1.848 2.113-2.09.978-.41 1.497.387 1.473 2.283-.012.881-.108 1.437-.507 2.91-1.087 3.924-1.425 6.134-1.123 7.256.181.652.749 1.147 1.268 1.1.362-.037.374-.061.47-.761.05-.399.254-1.751.46-3.02.193-1.255.434-2.885.543-3.621.254-1.908.447-7.825.459-14.248.012-5.542.012-5.554.302-6.4.23-.651.434-.977.905-1.448.737-.725 1.425-.99 2.983-1.1l1.038-.084.145-.736c.35-1.679 1.352-2.632 3.332-3.164.64-.169 1.28-.23 2.657-.23 1.992 0 2.547.122 4.347.991.809.386 1.509.52 1.509.29 0-.181-.978-1.099-1.763-1.654a8.735 8.735 0 0 0-1.57-.87c-.615-.253-.845-.41-.869-.591-.024-.145.157-.954.398-1.812.7-2.535.93-4.141.942-6.556.024-3.972-.676-6.605-2.982-11.06-2.137-4.13-4.395-7.16-6.182-8.295-.52-.314-1.135-.531-1.135-.398 0 .048.435.688.954 1.436 2.463 3.49 5.023 7.945 6.11 10.662.88 2.173 1.545 5.12 1.75 7.8.35 4.395-.845 8.15-2.898 9.068-.41.193-.87.265-1.871.29-1.594.06-1.811-.025-2.234-.87l-.302-.603-.072-4.83c-.133-8.223-.52-9.623-4.83-17.411-1.328-2.391-1.594-3.019-2.161-5.192-1.16-4.468-2.282-7.088-4.045-9.454-2.693-3.599-3.043-5.096-1.968-8.416.688-2.162.676-3.272-.049-4.009-.53-.543-.941-.736-3.368-1.51-3.683-1.17-5.386-2.22-5.856-3.61-.471-1.364-.133-3.586.712-4.684.604-.797 1.376-1.135 2.56-1.135.785.012 1.098.072 1.642.314.833.398 1.497.966 1.835 1.606.362.688.35 2.318-.024 3.513-.616 1.944-.592 1.739-.157 2.125.785.7 2.028.76 2.572.109.47-.556.616-1.123.676-2.717.072-1.739-.109-2.898-.821-5.083-.978-2.995-1.956-3.864-4.914-4.347-2.21-.362-3.417-.072-4.528 1.075-1.739 1.81-2.608 4.697-2.258 7.595.193 1.605.157 1.678-.749 1.388-.809-.253-2.584-.459-3.61-.423-1.099.049-1.195-.048-1.195-1.28-.012-5.01-1.522-7.74-4.287-7.715-1.92 0-3.477 1.461-4.057 3.78-.229.905-.18 3.5.073 5.01.519 2.97 1.642 4.456 2.523 3.296.363-.495.677-1.122.677-1.328 0-.084-.278-.277-.604-.434-.362-.17-.688-.435-.833-.677-.689-1.098-1.027-3.066-.737-4.117.374-1.328 2.198-2.15 3.453-1.557 1.063.507 2.198 2.85 2.077 4.322-.096 1.171-.314 1.534-1.376 2.318a31.043 31.043 0 0 0-1.92 1.558c-.531.47-1.183 1.014-1.449 1.207-1.352.978-2.113 2.126-2.113 3.212 0 .713.29 1.099 1.195 1.546.713.362 1.353.99 2.029 1.98.905 1.304 1.98 1.714 4.443 1.702 3.007-.012 5.7-.652 10.746-2.535 2.741-1.027 3.502-1.353 3.659-1.594.447-.652.966-1.11 1.28-1.11.422 0 .797.398.797.832 0 .737-1.135 1.34-5.072 2.68a48.057 48.057 0 0 0-3.984 1.607c-2.077.99-2.656 1.195-4.02 1.46-1.124.218-3.72.242-5.145.049-1.159-.157-1.859-.073-1.799.23.06.313 2.741 2.402 3.357 2.632.87.301 2.584.362 3.695.108 1.678-.362 6.979-2.644 9.61-4.117.882-.495 1.377-.7 1.691-.7.532-.013.942.326.942.748 0 .459-.893 1.244-1.871 1.654-1.727.7-2.09.894-3.804 1.98-2.342 1.498-3.369 2.246-4.914 3.599-1.654 1.437-2.125 1.63-3.96 1.654-1.461.012-1.908-.133-2.862-.954-.749-.64-2.536-2.862-3.043-3.791-.531-.966-1.714-2.307-2.028-2.307-.205 0-.23.049-.58 1.57-.241 1.087-1.135 3.14-2.584 5.977-1.738 3.417-1.823 3.719-1.823 7.305 0 2.994.073 2.74-1.388 4.77-1.787 2.51-4.565 9.067-5.229 12.375-.507 2.476-.857 6.69-.76 9.056.072 1.884-.024 2.44-.471 2.717-.46.29-1.002-.012-2.125-1.123-1.763-1.775-2.33-3.248-2.319-6.061.012-1.787.17-3.164.52-4.492.301-1.135.314-1.461.036-1.4-.29.048-.942 1.388-1.256 2.583-.193.713-.266 1.45-.314 2.946-.048 1.836-.036 2.101.254 3.381A11.347 11.347 0 0 0 33.09 86.4c1.461 1.932 8.863 8.5 13.789 12.255 1.183.894 2.5 2.017 2.934 2.488 2.608 2.825 2.1 5.41-1.461 7.401-.555.314-1.014.592-1.014.616 0 .024.459.664 1.014 1.4 2.04 2.754 3.224 4.77 3.634 6.183.278.93.266 2.27-.036 3.127-.12.386-.193.7-.145.7.049 0 .302-.241.568-.422zm2.09-89.906c-.375-.712.326-1.328 1.521-1.328.423 0 .797.049.833.121.085.145-.326.362-.688.362-.217 0-.338.12-.52.52-.193.422-.301.519-.627.543-.29.024-.41-.024-.52-.218zm7.16-.519c-.7-.253-1.244-.604-1.111-.736.036-.037.447-.097.905-.145 1.087-.097 1.498.06 1.498.543 0 .242-.085.41-.23.495-.133.06-.253.12-.277.109-.013 0-.375-.12-.785-.266zM36.484 63.568c1.16-1.196 1.485-1.8 1.413-2.657-.037-.591-.266-.797-.749-.676-.35.085-.543.447-.857 1.546-.133.53-.35.88-.845 1.436-.665.749-.785 1.027-.52 1.292.278.278.507.145 1.558-.941zm46.438-20.382c.253-.157.76-1.4.76-1.871 0-.375-.072-.544-.374-.822-.205-.193-.422-.35-.483-.35-.06 0-.531-.193-1.05-.446a6.3 6.3 0 0 1-1.727-1.208c-.435-.41-.857-.76-.93-.76-.072 0-.169.144-.217.313-.133.556.06 1.413.568 2.427.434.906.591 1.087 1.593 1.908 1.075.882 1.473 1.05 1.86.81zM53.87 27.02c.145-.375.109-.665-.266-1.884-.157-.531-.386-.978-.628-1.244-.35-.374-.41-.398-.688-.253-.398.217-.362.7.109 1.231.35.399.652 1.16.797 2.029.096.555.483.628.676.12zm17.013-.339c.265-.313.072-1.81-.29-2.366-.374-.568-1.244-1.087-1.932-1.16-.459-.06-.543-.023-.676.206-.17.314-.085.41.507.592.749.241 1.437 1.267 1.618 2.402.072.423.133.508.35.508a.621.621 0 0 0 .423-.182zm.809-16.264c.869-.6.93-.626 1.763-.648 1.062-.028 1.291-.117 1.291-.491 0-.584-2.004-2.361-2.85-2.518-.844-.16-1.146.3-1.315 2.018-.073.642-.157.91-.435 1.254-.374.475-.435.754-.193.993.241.247.76.065 1.739-.608z"/></svg>