<svg xmlns="http://www.w3.org/2000/svg" width="128" height="128" preserveAspectRatio="xMidYMid"><path d="M125.748 76.675c-.746-2.26-2.7-3.834-5.229-4.212-1.192-.178-2.557-.102-4.172.23-2.816.582-4.905.803-6.43.846 5.755-9.716 10.434-20.795 13.128-31.224 4.355-16.864 2.028-24.546-.692-28.021-7.198-9.198-17.7-14.139-30.37-14.29C85.224-.08 79.29 1.256 76.196 2.215c-2.882-.508-5.981-.792-9.233-.845-6.094-.097-11.48 1.232-16.08 3.962-2.548-.861-6.636-2.075-11.358-2.85-11.104-1.824-20.054-.403-26.6 4.222-7.927 5.6-11.602 15.328-10.922 28.915.215 4.314 2.629 17.44 6.428 29.888 2.184 7.155 4.513 13.097 6.922 17.662 3.416 6.473 7.07 10.285 11.174 11.653 2.3.767 6.48 1.303 10.875-2.357.557.674 1.3 1.345 2.286 1.967 1.253.79 2.785 1.436 4.314 1.819 5.514 1.378 10.678 1.033 15.084-.899.027.784.048 1.533.066 2.18.03 1.048.058 2.076.097 3.037.26 6.502.703 11.558 2.013 15.095.072.195.17.49.271.805.654 2.002 1.748 5.354 4.529 7.979 2.88 2.718 6.365 3.552 9.556 3.552 1.6 0 3.127-.21 4.466-.497 4.775-1.023 10.196-2.582 14.119-8.166 3.708-5.28 5.51-13.232 5.836-25.761.043-.354.082-.693.12-1.015.025-.218.05-.44.077-.662l.873.077.226.015c4.862.221 10.808-.81 14.459-2.506 2.885-1.339 12.131-6.22 9.954-12.81"/><path d="M117.434 77.957c-14.458 2.982-15.452-1.913-15.452-1.913 15.265-22.651 21.647-51.403 16.14-58.44C103.098-1.59 77.092 7.487 76.658 7.723l-.14.025c-2.856-.593-6.052-.946-9.645-1.005-6.542-.107-11.504 1.715-15.27 4.57 0 0-46.392-19.111-44.235 24.037.46 9.18 13.157 69.457 28.303 51.25a279.72 279.72 0 0 1 10.884-12.286c2.657 1.765 5.837 2.665 9.17 2.341l.26-.22c-.08.827-.044 1.636.104 2.593-3.902 4.359-2.756 5.124-10.555 6.73-7.892 1.626-3.256 4.522-.229 5.279 3.67.918 12.16 2.218 17.896-5.813l-.228.916c1.528 1.225 2.602 7.965 2.422 14.075-.18 6.11-.3 10.305.904 13.582 1.205 3.276 2.406 10.649 12.659 8.451 8.568-1.836 13.007-6.593 13.625-14.53.438-5.642 1.43-4.808 1.493-9.853l.795-2.388c.918-7.648.146-10.116 5.424-8.968l1.283.113c3.885.176 8.97-.625 11.954-2.012 6.426-2.983 10.237-7.962 3.901-6.653" fill="#336791"/><path d="M54.319 39.455c-1.303-.18-2.483-.013-3.08.439-.336.254-.44.549-.468.752-.075.537.302 1.13.533 1.437.654.867 1.61 1.463 2.556 1.595.137.019.274.028.41.028 1.577 0 3.011-1.229 3.138-2.135.158-1.136-1.49-1.893-3.09-2.116M97.48 39.491c-.124-.89-1.708-1.144-3.212-.935-1.5.21-2.956.887-2.835 1.78.098.693 1.35 1.878 2.833 1.877.125 0 .252-.008.38-.026.989-.137 1.715-.766 2.06-1.128.526-.552.83-1.168.774-1.568" fill="#fff"/><path d="M122.245 77.618c-.551-1.667-2.325-2.204-5.274-1.595-8.753 1.806-11.887.555-12.917-.203 6.804-10.365 12.401-22.893 15.42-34.583 1.43-5.537 2.22-10.679 2.285-14.87.072-4.6-.712-7.981-2.328-10.046-6.515-8.326-16.077-12.791-27.653-12.914-7.957-.09-14.68 1.947-15.984 2.52A39.846 39.846 0 0 0 66.8 4.772c-5.974-.097-11.138 1.333-15.413 4.248-1.857-.69-6.656-2.338-12.525-3.284-10.147-1.633-18.21-.396-23.964 3.68-6.866 4.865-10.036 13.56-9.421 25.844.206 4.133 2.56 16.846 6.277 29.022 4.892 16.025 10.209 25.097 15.804 26.963.654.218 1.41.371 2.242.371 2.04 0 4.543-.92 7.146-4.05a257.573 257.573 0 0 1 9.85-11.145c2.2 1.18 4.615 1.84 7.087 1.906.004.064.01.13.016.193a57.184 57.184 0 0 0-1.249 1.544c-1.712 2.173-2.068 2.626-7.58 3.76-1.567.324-5.732 1.182-5.792 4.101-.067 3.189 4.921 4.528 5.49 4.67 1.98.496 3.888.74 5.708.74 4.426 0 8.32-1.454 11.432-4.268-.096 11.369.379 22.571 1.743 25.985 1.118 2.794 3.85 9.623 12.477 9.622 1.265 0 2.66-.147 4.192-.475 9.004-1.931 12.913-5.91 14.426-14.683.81-4.69 2.199-15.886 2.852-21.891 1.378.43 3.153.627 5.072.626 4.002 0 8.62-.85 11.516-2.194 3.253-1.51 9.124-5.219 8.059-8.44zm-21.442-40.584c-.03 1.773-.274 3.383-.532 5.063-.278 1.807-.566 3.675-.639 5.943-.071 2.207.204 4.502.47 6.721.54 4.482 1.092 9.097-1.048 13.65a17.747 17.747 0 0 1-.947-1.949c-.266-.645-.844-1.68-1.643-3.113-3.111-5.58-10.396-18.644-6.667-23.975 1.11-1.587 3.93-3.218 11.006-2.34zM92.226 6.997c10.371.23 18.575 4.11 24.384 11.532 4.455 5.693-.451 31.598-14.653 53.946a83.38 83.38 0 0 0-.43-.543l-.18-.225c3.67-6.06 2.952-12.057 2.313-17.373-.262-2.182-.51-4.243-.447-6.178.065-2.053.337-3.812.599-5.513.323-2.097.65-4.267.56-6.825a2.83 2.83 0 0 0 .06-.96c-.232-2.454-3.032-9.794-8.74-16.438-3.12-3.633-7.674-7.7-13.89-10.443 2.674-.554 6.33-1.07 10.424-.98zM34.191 85.276c-2.868 3.448-4.849 2.787-5.5 2.57-4.244-1.416-9.169-10.386-13.51-24.61C11.424 50.928 9.228 38.55 9.055 35.08c-.549-10.976 2.112-18.626 7.908-22.736 9.433-6.69 24.942-2.686 31.174-.655-.09.088-.183.17-.272.26-10.226 10.328-9.983 27.973-9.958 29.052-.001.416.034 1.005.082 1.816.176 2.967.503 8.49-.372 14.746-.813 5.813.98 11.502 4.916 15.61.407.425.833.824 1.272 1.2a262.508 262.508 0 0 0-9.614 10.902zM45.12 70.695c-3.172-3.31-4.613-7.915-3.953-12.635.923-6.608.582-12.363.4-15.454-.026-.433-.05-.812-.063-1.111 1.494-1.325 8.417-5.034 13.354-3.903 2.254.516 3.626 2.05 4.197 4.69 2.954 13.66.391 19.355-1.668 23.93-.425.944-.826 1.835-1.168 2.757l-.266.712c-.672 1.802-1.297 3.477-1.684 5.068-3.373-.01-6.654-1.45-9.149-4.054zm.518 18.425c-.985-.246-1.87-.674-2.39-1.028.434-.205 1.206-.482 2.546-.758 6.484-1.335 7.485-2.277 9.672-5.054.501-.636 1.07-1.358 1.856-2.237h.001c1.173-1.313 1.709-1.09 2.681-.687.788.326 1.556 1.314 1.867 2.4.147.514.313 1.489-.229 2.247-4.568 6.395-11.224 6.313-16.004 5.117zm33.932 31.576c-7.932 1.7-10.74-2.348-12.591-6.975-1.194-2.987-1.781-16.456-1.365-31.33a1.783 1.783 0 0 0-.077-.569 7.505 7.505 0 0 0-.222-1.051c-.62-2.164-2.129-3.975-3.94-4.725-.719-.298-2.04-.845-3.626-.44.338-1.394.925-2.968 1.561-4.673l.267-.717c.3-.809.678-1.646 1.077-2.533 2.155-4.787 5.106-11.345 1.903-26.16-1.2-5.548-5.207-8.257-11.28-7.628-3.642.377-6.974 1.846-8.635 2.688-.357.181-.684.356-.99.527.464-5.591 2.217-16.04 8.77-22.65 4.127-4.161 9.623-6.217 16.32-6.106 13.194.216 21.654 6.987 26.43 12.63 4.114 4.862 6.342 9.76 7.23 12.4-6.686-.68-11.234.641-13.54 3.937-5.015 7.17 2.745 21.085 6.474 27.772.684 1.226 1.274 2.285 1.46 2.736 1.214 2.943 2.786 4.907 3.934 6.342.352.44.693.866.953 1.238-2.025.584-5.663 1.933-5.332 8.676-.267 3.384-2.169 19.225-3.134 24.822-1.275 7.394-3.996 10.148-11.647 11.789zm33.108-37.889c-2.07.962-5.536 1.683-8.829 1.837-3.636.17-5.487-.407-5.923-.762-.204-4.202 1.36-4.641 3.015-5.106.26-.073.514-.144.76-.23.152.124.318.247.5.367 2.924 1.93 8.137 2.138 15.496.619l.08-.017c-.992.928-2.69 2.174-5.099 3.292z" fill="#fff"/></svg>