<svg xmlns="http://www.w3.org/2000/svg" width="111.225" height="100" preserveAspectRatio="xMidYMid"><path d="M0 49.82c0 8.4 8.202 16.241 21.133 20.661-2.582 13-.463 23.478 6.617 27.56 7.276 4.197 18.117 1.292 28.406-7.702 10.03 8.631 20.166 12.028 27.239 7.933 7.27-4.208 9.48-15.396 6.827-28.802 13.469-4.453 21.003-11.14 21.003-19.65 0-8.204-8.218-15.303-20.975-19.694 2.857-13.96.437-24.184-6.936-28.435-7.107-4.099-17.362-.526-27.539 8.33-10.587-9.4-20.74-12.27-28.105-8.007-7.101 4.11-9.127 14.779-6.537 28.02C8.64 34.39 0 41.647 0 49.82z" fill="#fff" stroke-width=".437"/><path d="M87.549 34.487a66.178 66.178 0 0 0-3.18-1.002c.18-.734.344-1.457.491-2.169 2.407-11.684.833-21.097-4.54-24.196-5.154-2.971-13.581.127-22.092 7.534a66.074 66.074 0 0 0-2.46 2.257 60.14 60.14 0 0 0-1.637-1.512c-8.92-7.92-17.86-11.257-23.23-8.15-5.147 2.98-6.672 11.83-4.505 22.903.21 1.069.454 2.161.73 3.272-1.265.359-2.487.742-3.656 1.15-10.457 3.645-17.136 9.36-17.136 15.287 0 6.121 7.17 12.261 18.062 15.984.86.294 1.752.572 2.67.836a64.616 64.616 0 0 0-.775 3.526c-2.066 10.88-.453 19.52 4.682 22.482 5.303 3.058 14.204-.086 22.87-7.662a56.17 56.17 0 0 0 2.062-1.9c.892.86 1.784 1.674 2.67 2.437 8.395 7.224 16.686 10.141 21.816 7.171 5.298-3.067 7.02-12.348 4.784-23.64-.17-.862-.37-1.743-.592-2.64a59.094 59.094 0 0 0 1.837-.574c11.324-3.752 18.691-9.817 18.691-16.02 0-5.949-6.894-11.702-17.562-15.374z" fill="#53c1de" stroke-width=".437"/><path d="M85.093 61.876c-.54.179-1.095.351-1.66.519-1.25-3.958-2.937-8.166-5.001-12.514 1.97-4.244 3.592-8.399 4.807-12.33 1.01.292 1.991.6 2.936.926 9.14 3.146 14.716 7.799 14.716 11.384 0 3.818-6.021 8.775-15.798 12.015zm-4.057 8.039c.988 4.993 1.13 9.507.475 13.036-.589 3.172-1.772 5.286-3.235 6.133-3.113 1.801-9.77-.54-16.949-6.719a60.467 60.467 0 0 1-2.484-2.264c2.784-3.044 5.565-6.583 8.28-10.513 4.775-.424 9.287-1.117 13.378-2.063.201.813.38 1.61.535 2.39zM40.009 88.772c-3.041 1.074-5.463 1.105-6.928.26-3.115-1.796-4.41-8.733-2.644-18.038.203-1.066.443-2.16.721-3.28 4.046.895 8.525 1.539 13.311 1.927 2.733 3.846 5.596 7.38 8.48 10.476a51.956 51.956 0 0 1-1.882 1.733c-3.833 3.35-7.673 5.727-11.058 6.922zm-14.248-26.92c-4.817-1.646-8.794-3.785-11.52-6.12-2.45-2.098-3.688-4.181-3.688-5.871 0-3.597 5.363-8.185 14.306-11.303a60.884 60.884 0 0 1 3.4-1.07c1.236 4.02 2.858 8.224 4.815 12.475-1.982 4.314-3.627 8.585-4.875 12.653a51.983 51.983 0 0 1-2.438-.764zm4.776-32.51c-1.856-9.488-.623-16.645 2.479-18.44 3.304-1.914 10.612.814 18.314 7.653.492.437.986.894 1.482 1.368-2.87 3.081-5.706 6.59-8.415 10.413-4.646.43-9.092 1.122-13.181 2.048a61.867 61.867 0 0 1-.679-3.043zm42.608 10.52a134.198 134.198 0 0 0-3.004-4.94 93.06 93.06 0 0 1 9.007 1.575 90.132 90.132 0 0 1-3.161 8.505 147.06 147.06 0 0 0-2.842-5.14zM55.77 22.938a90.203 90.203 0 0 1 5.812 7.018 124.328 124.328 0 0 0-11.674-.003 93.086 93.086 0 0 1 5.862-7.015zM38.283 39.891A124.687 124.687 0 0 0 35.494 45a93.156 93.156 0 0 1-3.138-8.547 95.108 95.108 0 0 1 8.955-1.537 124.061 124.061 0 0 0-3.028 4.976zM41.4 65.107c-3.235-.36-6.286-.85-9.103-1.463a94.738 94.738 0 0 1 3.201-8.72 124.708 124.708 0 0 0 5.902 10.184zM55.886 77.08a94.716 94.716 0 0 1-5.943-7.112c1.892.074 3.82.112 5.78.112 2.013 0 4.003-.045 5.962-.132-1.923 2.613-3.865 5.004-5.799 7.132zm20.141-22.308c1.32 3.01 2.433 5.92 3.317 8.69-2.864.653-5.956 1.179-9.214 1.57a147.56 147.56 0 0 0 3.032-5.026 134.046 134.046 0 0 0 2.865-5.234zm-6.52 3.126a138.35 138.35 0 0 1-4.739 7.645c-2.93.21-5.96.317-9.046.317-3.073 0-6.063-.095-8.943-.282a119.689 119.689 0 0 1-4.828-7.657 118.615 118.615 0 0 1-4.214-7.96A119.722 119.722 0 0 1 41.939 42a118.577 118.577 0 0 1 4.789-7.625 119.57 119.57 0 0 1 8.994-.337c3.059 0 6.075.116 9.012.34a127.085 127.085 0 0 1 4.759 7.6 138.322 138.322 0 0 1 4.258 7.925 127.128 127.128 0 0 1-4.244 7.995zm8.705-47.122c3.307 1.908 4.594 9.6 2.515 19.688-.132.644-.281 1.3-.444 1.964-4.098-.946-8.548-1.65-13.207-2.086-2.714-3.865-5.527-7.38-8.35-10.421a62.037 62.037 0 0 1 2.272-2.084c7.292-6.346 14.108-8.852 17.214-7.06z" fill="#fff" stroke-width=".437"/><path d="M55.722 41.04a8.82 8.82 0 1 1 0 17.641 8.82 8.82 0 0 1 0-17.64" fill="#53c1de" stroke-width=".437"/></svg>