<svg xmlns="http://www.w3.org/2000/svg" viewBox="19 19 94.222 94.222" height="128" width="128"><path d="M112.579 64.955l-3.956-2.448c-.033-.386-.071-.77-.113-1.153l3.4-3.17c.345-.322.5-.8.407-1.261a1.356 1.356 0 0 0-.858-1.01l-4.346-1.625c-.109-.377-.223-.75-.34-1.122l2.71-3.765a1.361 1.361 0 0 0-.885-2.14l-4.582-.745a38.62 38.62 0 0 0-.551-1.029l1.925-4.226c.197-.43.157-.931-.106-1.322a1.354 1.354 0 0 0-1.18-.604l-4.65.162c-.24-.3-.485-.599-.735-.891l1.069-4.53a1.361 1.361 0 0 0-1.638-1.638l-4.529 1.067a39.085 39.085 0 0 0-.893-.734l.163-4.65a1.36 1.36 0 0 0-1.925-1.286l-4.225 1.925a49.043 49.043 0 0 0-1.03-.552l-.746-4.583a1.362 1.362 0 0 0-2.14-.885l-3.767 2.71c-.37-.118-.743-.231-1.12-.34l-1.625-4.346a1.358 1.358 0 0 0-2.27-.452l-3.17 3.402a40.898 40.898 0 0 0-1.153-.113l-2.448-3.956a1.361 1.361 0 0 0-2.315 0L62.508 23.6c-.385.032-.77.07-1.153.113l-3.171-3.402a1.36 1.36 0 0 0-2.27.453l-1.626 4.346c-.376.108-.749.222-1.12.34L49.4 22.74a1.364 1.364 0 0 0-2.14.886l-.747 4.582c-.346.18-.688.364-1.03.552l-4.225-1.926a1.357 1.357 0 0 0-1.32.107 1.356 1.356 0 0 0-.604 1.18l.162 4.65c-.301.24-.6.486-.893.734l-4.53-1.067a1.36 1.36 0 0 0-1.638 1.638l1.067 4.53c-.248.293-.493.59-.733.891l-4.65-.162a1.36 1.36 0 0 0-1.286 1.926l1.925 4.226c-.187.34-.372.682-.551 1.03l-4.583.744a1.362 1.362 0 0 0-.885 2.14l2.71 3.765c-.118.372-.232.745-.34 1.122l-4.346 1.625a1.36 1.36 0 0 0-.451 2.27l3.4 3.171c-.043.383-.08.768-.113 1.153l-3.955 2.448a1.36 1.36 0 0 0 0 2.315l3.955 2.448c.033.386.07.77.113 1.153l-3.4 3.171a1.36 1.36 0 0 0 .45 2.27l4.347 1.625c.108.377.222.75.34 1.122l-2.71 3.766a1.36 1.36 0 0 0 .886 2.138l4.582.746c.179.347.362.69.551 1.03l-1.926 4.225c-.196.43-.156.93.107 1.322.263.393.71.623 1.18.604l4.648-.163c.242.302.486.599.735.893l-1.067 4.53c-.108.46.028.94.363 1.274.332.335.815.47 1.275.362l4.53-1.067c.294.25.592.493.893.733l-.162 4.651a1.36 1.36 0 0 0 1.924 1.286l4.226-1.926c.34.189.682.373 1.029.552l.747 4.58a1.364 1.364 0 0 0 2.14.888l3.765-2.713c.372.118.745.234 1.121.342l1.625 4.344c.165.441.547.768 1.01.858.463.093.94-.061 1.26-.407l3.172-3.4c.383.044.768.08 1.153.115l2.45 3.956a1.362 1.362 0 0 0 2.314 0l2.448-3.956c.386-.034.77-.071 1.153-.115l3.17 3.4c.322.346.799.5 1.26.407.464-.091.846-.417 1.01-.858l1.626-4.344c.376-.108.75-.224 1.121-.342l3.766 2.713a1.362 1.362 0 0 0 2.139-.888l.747-4.58c.346-.18.688-.366 1.029-.552l4.226 1.926a1.359 1.359 0 0 0 1.924-1.286l-.162-4.651c.301-.24.599-.483.893-.733l4.529 1.067c.46.108.942-.027 1.274-.362.335-.334.471-.814.363-1.273L98.72 93.62c.249-.294.494-.59.733-.893l4.65.163c.47.019.918-.21 1.18-.604.263-.393.303-.892.106-1.322l-1.925-4.224c.188-.342.372-.684.55-1.031l4.583-.746a1.36 1.36 0 0 0 .886-2.139l-2.711-3.765c.117-.372.231-.745.34-1.122l4.346-1.625c.442-.165.768-.546.858-1.01a1.353 1.353 0 0 0-.407-1.26l-3.4-3.171c.042-.383.08-.768.113-1.153l3.956-2.448a1.36 1.36 0 0 0 0-2.314zM86.104 97.77a2.803 2.803 0 0 1 1.173-5.48 2.802 2.802 0 0 1 2.15 3.327 2.801 2.801 0 0 1-3.323 2.153zm-1.345-9.09a2.55 2.55 0 0 0-3.029 1.962l-1.404 6.554a34.303 34.303 0 0 1-14.215 3.06 34.337 34.337 0 0 1-14.513-3.198l-1.403-6.554a2.55 2.55 0 0 0-3.028-1.961l-5.786 1.242a34.329 34.329 0 0 1-2.992-3.526h28.152c.32 0 .532-.058.532-.347v-9.959c0-.29-.213-.347-.532-.347h-8.233v-6.313h8.905c.813 0 4.346.233 5.476 4.75.354 1.388 1.13 5.906 1.662 7.353.53 1.622 2.684 4.863 4.981 4.863H93.36c.16 0 .33-.018.509-.05a34.567 34.567 0 0 1-3.19 3.743zm-38.936 8.953a2.797 2.797 0 0 1-3.323-2.15 2.804 2.804 0 0 1 2.148-3.33 2.803 2.803 0 0 1 1.175 5.48zm-10.68-43.305a2.803 2.803 0 0 1-1.423 3.697 2.796 2.796 0 0 1-3.692-1.425A2.803 2.803 0 0 1 31.45 52.9a2.796 2.796 0 0 1 3.692 1.426zm-3.282 7.78l6.027-2.677a2.555 2.555 0 0 0 1.297-3.37l-1.241-2.808h4.882v22.005h-9.85a34.485 34.485 0 0 1-1.312-9.448c0-1.25.067-2.487.197-3.701zm26.449-2.136v-6.486h11.625c.6 0 4.24.694 4.24 3.415 0 2.26-2.791 3.07-5.087 3.07H58.31zm42.25 5.838c0 .86-.032 1.712-.095 2.557h-3.534c-.354 0-.496.232-.496.579v1.623c0 3.82-2.155 4.652-4.042 4.863-1.798.203-3.791-.753-4.037-1.853-1.06-5.964-2.828-7.238-5.618-9.44 3.463-2.199 7.066-5.443 7.066-9.786 0-4.689-3.214-7.642-5.405-9.09-3.075-2.027-6.479-2.433-7.397-2.433H40.45c4.957-5.532 11.674-9.45 19.272-10.877l4.309 4.52a2.548 2.548 0 0 0 3.606.083l4.82-4.61c10.102 1.88 18.655 8.168 23.583 16.795l-3.3 7.453a2.558 2.558 0 0 0 1.298 3.37l6.354 2.823c.11 1.128.168 2.268.168 3.423zM64.032 28.108a2.795 2.795 0 0 1 3.956.09 2.804 2.804 0 0 1-.093 3.962 2.794 2.794 0 0 1-3.955-.092 2.805 2.805 0 0 1 .092-3.96zm32.751 26.355a2.795 2.795 0 0 1 3.691-1.425 2.803 2.803 0 0 1 1.423 3.697 2.795 2.795 0 0 1-3.692 1.426 2.806 2.806 0 0 1-1.422-3.698z" stroke-width=".9"/></svg>