<svg xmlns="http://www.w3.org/2000/svg" xmlns:xlink="http://www.w3.org/1999/xlink" width="128" height="128"><defs><linearGradient id="b"><stop offset="0" stop-color="#fff" stop-opacity=".6"/><stop offset="1" stop-color="#fff" stop-opacity=".208"/></linearGradient><linearGradient id="c"><stop offset="0" stop-color="#cbdbed"/><stop offset="1" stop-color="#204a87"/></linearGradient><linearGradient id="a"><stop offset="0" stop-color="#729fcf"/><stop offset="1" stop-color="#204a87"/></linearGradient><linearGradient xlink:href="#a" id="d" gradientUnits="userSpaceOnUse" x1=".5" y1="12" x2="15.5" y2="12"/><linearGradient xlink:href="#b" id="f" gradientUnits="userSpaceOnUse" x1="1" y1="22" x2="15" y2="22"/><linearGradient xlink:href="#a" id="g" gradientUnits="userSpaceOnUse" x1=".5" y1="12" x2="15.5" y2="12"/><linearGradient xlink:href="#c" id="h" gradientUnits="userSpaceOnUse" x1=".5" y1="12.984" x2="15.5" y2="12.984"/><linearGradient xlink:href="#b" id="i" gradientUnits="userSpaceOnUse" x1="1" y1="22" x2="15" y2="22"/><linearGradient xlink:href="#a" id="j" gradientUnits="userSpaceOnUse" x1=".5" y1="12" x2="15.5" y2="12"/><linearGradient xlink:href="#c" id="k" gradientUnits="userSpaceOnUse" x1=".5" y1="12.984" x2="15.5" y2="12.984"/><linearGradient xlink:href="#b" id="l" gradientUnits="userSpaceOnUse" x1="1" y1="22" x2="15" y2="22"/><linearGradient xlink:href="#c" id="e" gradientUnits="userSpaceOnUse" x1=".5" y1="12.984" x2="15.5" y2="12.984"/></defs><g transform="translate(0 -924.362)"><path transform="matrix(8 0 0 8 0 924.362)" d="M8 8.5c-4.142 0-7.5.895-7.5 2v3c0 1.105 3.358 2 7.5 2 4.142 0 7.5-.895 7.5-2v-3c0-1.105-3.358-2-7.5-2z" fill="url(#d)"/><path transform="matrix(8 0 0 8 0 924.362)" d="M.5 10.469V13.5c0 1.105 3.358 2 7.5 2 4.142 0 7.5-.895 7.5-2v-3-.031c-.097.083-.2.148-.313.219-.449.283-1.04.53-1.75.718C12.02 11.784 10.107 12 8 12s-4.02-.216-5.438-.594c-.709-.189-1.3-.435-1.75-.719-.112-.07-.215-.135-.312-.218z" fill="url(#e)"/><path transform="matrix(8 0 0 8 0 844.362)" d="M8 19c-2.035 0-3.891.217-5.188.563-.648.172-1.158.398-1.468.593-.31.196-.344.321-.344.344v3c0 .023.034.148.344.344.31.195.82.42 1.468.593C4.11 24.784 5.966 25 8 25c2.035 0 3.891-.217 5.188-.563.648-.172 1.158-.398 1.468-.593.31-.196.344-.321.344-.344v-3c0-.023-.034-.148-.344-.344-.31-.195-.82-.42-1.469-.593C11.892 19.216 10.035 19 8 19zm0 1c1.963 0 3.733.218 4.906.531.525.14.892.296 1.094.407v2.125c-.202.11-.57.266-1.094.406C11.733 23.782 9.963 24 8 24c-1.963 0-3.733-.218-4.906-.531-.525-.14-.892-.296-1.094-.407v-2.125c.202-.11.57-.266 1.094-.406C4.267 20.218 6.037 20 8 20z" style="line-height:normal;-inkscape-font-specification:'Bitstream Vera Sans';text-indent:0;text-align:start;text-decoration-line:none;text-transform:none;marker:none" color="#000" font-weight="400" font-family="Bitstream Vera Sans" overflow="visible" fill="url(#f)"/><path d="M64 992.362c-33.137 0-60 7.164-60 16v24c0 8.837 26.863 16 60 16s60-7.163 60-16v-24c0-8.836-26.863-16-60-16z" fill="none" stroke="#183866" stroke-width="8"/><path transform="matrix(8 0 0 8 0 892.362)" d="M8 8.5c-4.142 0-7.5.895-7.5 2v3c0 1.105 3.358 2 7.5 2 4.142 0 7.5-.895 7.5-2v-3c0-1.105-3.358-2-7.5-2z" fill="url(#g)"/><path transform="matrix(8 0 0 8 0 892.362)" d="M.5 10.469V13.5c0 1.105 3.358 2 7.5 2 4.142 0 7.5-.895 7.5-2v-3-.031c-.097.083-.2.148-.313.219-.449.283-1.04.53-1.75.718C12.02 11.784 10.107 12 8 12s-4.02-.216-5.438-.594c-.709-.189-1.3-.435-1.75-.719-.112-.07-.215-.135-.312-.218z" fill="url(#h)"/><path transform="matrix(8 0 0 8 0 812.362)" d="M8 19c-2.035 0-3.891.217-5.188.563-.648.172-1.158.398-1.468.593-.31.196-.344.321-.344.344v3c0 .023.034.148.344.344.31.195.82.42 1.468.593C4.11 24.784 5.966 25 8 25c2.035 0 3.891-.217 5.188-.563.648-.172 1.158-.398 1.468-.593.31-.196.344-.321.344-.344v-3c0-.023-.034-.148-.344-.344-.31-.195-.82-.42-1.469-.593C11.892 19.216 10.035 19 8 19zm0 1c1.963 0 3.733.218 4.906.531.525.14.892.296 1.094.407v2.125c-.202.11-.57.266-1.094.406C11.733 23.782 9.963 24 8 24c-1.963 0-3.733-.218-4.906-.531-.525-.14-.892-.296-1.094-.407v-2.125c.202-.11.57-.266 1.094-.406C4.267 20.218 6.037 20 8 20z" style="line-height:normal;-inkscape-font-specification:'Bitstream Vera Sans';text-indent:0;text-align:start;text-decoration-line:none;text-transform:none;marker:none" color="#000" font-weight="400" font-family="Bitstream Vera Sans" overflow="visible" fill="url(#i)"/><path d="M64 960.362c-33.137 0-60 7.164-60 16v24c0 8.837 26.863 16 60 16s60-7.163 60-16v-24c0-8.836-26.863-16-60-16z" fill="none" stroke="#183866" stroke-width="8"/><path d="M8 8.5c-4.142 0-7.5.895-7.5 2v3c0 1.105 3.358 2 7.5 2 4.142 0 7.5-.895 7.5-2v-3c0-1.105-3.358-2-7.5-2z" transform="matrix(8 0 0 8 0 860.362)" fill="url(#j)"/><path d="M.5 10.469V13.5c0 1.105 3.358 2 7.5 2 4.142 0 7.5-.895 7.5-2v-3-.031c-.097.083-.2.148-.313.219-.449.283-1.04.53-1.75.718C12.02 11.784 10.107 12 8 12s-4.02-.216-5.438-.594c-.709-.189-1.3-.435-1.75-.719-.112-.07-.215-.135-.312-.218z" transform="matrix(8 0 0 8 0 860.362)" fill="url(#k)"/><path d="M64 928.362c-33.137 0-60 7.164-60 16v24c0 8.837 26.863 16 60 16s60-7.163 60-16v-24c0-8.836-26.863-16-60-16z" fill="none" stroke="#183866" stroke-width="8"/><path style="line-height:normal;-inkscape-font-specification:'Bitstream Vera Sans';text-indent:0;text-align:start;text-decoration-line:none;text-transform:none;marker:none" d="M8 19c-2.035 0-3.891.217-5.188.563-.648.172-1.158.398-1.468.593-.31.196-.344.321-.344.344v3c0 .023.034.148.344.344.31.195.82.42 1.468.593C4.11 24.784 5.966 25 8 25c2.035 0 3.891-.217 5.188-.563.648-.172 1.158-.398 1.468-.593.31-.196.344-.321.344-.344v-3c0-.023-.034-.148-.344-.344-.31-.195-.82-.42-1.469-.593C11.892 19.216 10.035 19 8 19zm0 1c1.963 0 3.733.218 4.906.531.525.14.892.296 1.094.407v2.125c-.202.11-.57.266-1.094.406C11.733 23.782 9.963 24 8 24c-1.963 0-3.733-.218-4.906-.531-.525-.14-.892-.296-1.094-.407v-2.125c.202-.11.57-.266 1.094-.406C4.267 20.218 6.037 20 8 20z" transform="matrix(8 0 0 8 0 780.362)" color="#000" font-weight="400" font-family="Bitstream Vera Sans" overflow="visible" fill="url(#l)"/><rect width="104" height="48" x="12" y="965.362" rx="10.4" fill="#183866"/><g aria-label="SQL" style="line-height:1.25;-inkscape-font-specification:'Open Sans'" font-weight="700" font-size="42.667" font-family="Open Sans" letter-spacing="0" word-spacing="0" fill="#fff"><path d="M41.773 976.015v6.583q-2.562-1.146-5-1.73-2.437-.583-4.604-.583-2.875 0-4.25.792t-1.375 2.458q0 1.25.917 1.959.937.687 3.375 1.187l3.417.688q5.187 1.041 7.375 3.166 2.187 2.125 2.187 6.042 0 5.146-3.062 7.667-3.042 2.5-9.313 2.5-2.958 0-5.937-.563-2.98-.562-5.959-1.666v-6.771q2.98 1.583 5.75 2.396 2.792.791 5.375.791 2.625 0 4.021-.875t1.396-2.5q0-1.458-.958-2.25-.938-.791-3.771-1.416l-3.104-.688q-4.667-1-6.834-3.187-2.146-2.188-2.146-5.896 0-4.646 3-7.146t8.625-2.5q2.563 0 5.271.396 2.709.375 5.604 1.146zM65.94 1006.702h-.625q-7.687 0-11.958-4.25t-4.271-11.833q0-7.563 4.25-11.854 4.27-4.292 11.75-4.292 7.562 0 11.77 4.25 4.23 4.25 4.23 11.896 0 5.25-2.25 9.041-2.23 3.792-6.438 5.709l6.271 7h-7.646zm-.854-26.417q-3.667 0-5.688 2.709-2.02 2.708-2.02 7.625 0 5 1.979 7.666 1.979 2.646 5.729 2.646 3.687 0 5.708-2.708 2.021-2.708 2.021-7.604 0-4.917-2.02-7.625-2.022-2.709-5.71-2.709zM87.128 975.035h8.02v25.042h14.084v6.063H87.128z"/></g></g></svg>