<svg xmlns="http://www.w3.org/2000/svg" width="128" height="128" preserveAspectRatio="xMidYMid"><defs><linearGradient x1="92.697" y1="17.661" x2="92.697" y2="157.955" id="a" gradientTransform="matrix(.62452 0 0 .65942 0 -.348)" gradientUnits="userSpaceOnUse"><stop stop-color="#97D9F6" offset="0%"/><stop stop-color="#0F80CC" offset="92.024%"/><stop stop-color="#0F80CC" offset="100%"/></linearGradient></defs><rect width="121.613" height="121.613" y="6.038" rx="10.909" fill="#fff"/><path d="M101.322 6.038H11.006C4.953 6.038 0 10.992 0 17.045v99.601c0 6.053 4.953 11.005 11.006 11.005H70.49c-.675-29.597 9.432-87.037 30.832-121.613z" fill="#0f80cc"/><path d="M98.04 9.25H11.006c-4.298 0-7.796 3.496-7.796 7.795v92.334c19.711-7.565 49.296-14.092 69.752-13.796 4.11-21.494 16.192-63.617 25.078-86.334z" fill="url(#a)"/><path d="M114.953-.344c-4.354-.121-9.012 2.282-13.632 6.382a52.241 52.241 0 0 0-3.28 3.211C85.396 22.663 73.659 47.51 70.013 66.485c1.42 2.88 2.53 6.557 3.26 9.365.187.72.356 1.397.491 1.972a66.54 66.54 0 0 1 .494 2.243s-.114-.428-.58-1.777c-.088-.259-.186-.541-.302-.874-.05-.137-.12-.304-.196-.482-.825-1.917-3.106-5.964-4.11-7.726a193.012 193.012 0 0 0-2.253 7.048c2.898 5.304 4.665 14.392 4.665 14.392s-.153-.588-.881-2.644c-.647-1.819-3.869-7.462-4.632-8.781-1.305 4.818-1.824 8.071-1.356 8.864.908 1.534 1.773 4.181 2.532 7.11 1.715 6.597 2.908 14.63 2.908 14.63l.104 1.35c-.238 5.54-.096 11.284.333 16.476h1.49c-.116-2.658-.133-5.44-.022-8.36.539-14.381 3.85-31.726 9.964-49.803C92.254 42.2 106.587 20.306 119.706 9.85c-11.958 10.798-28.14 45.753-32.984 58.697-5.425 14.495-9.269 28.097-11.585 41.13 3.997-12.218 16.92-17.47 16.92-17.47s6.339-7.818 13.746-18.986c-4.437 1.012-11.723 2.744-14.163 3.77-3.6 1.51-4.571 2.025-4.571 2.025S98.73 71.915 108.735 68.7c13.758-21.67 28.748-52.455 13.653-65.92-2.32-2.07-4.823-3.052-7.435-3.124z" fill="#003b57"/></svg>