<svg xmlns="http://www.w3.org/2000/svg" width="128" height="128" preserveAspectRatio="xMidYMid"><rect width="128" height="128" rx="16" fill="#007acc" stroke-width="2.248"/><g fill="#fff"><path d="M28.306 64.425l-.041 5.241h16.66v47.34H56.71v-47.34h16.66v-5.14c0-2.844-.06-5.221-.142-5.282-.06-.082-10.199-.122-22.49-.102l-22.37.061zM103.283 59.054c3.251.813 5.73 2.255 8.005 4.612 1.179 1.26 2.926 3.556 3.068 4.104.041.163-5.526 3.901-8.899 5.994-.122.081-.61-.447-1.158-1.26-1.646-2.397-3.373-3.433-6.014-3.616-3.88-.264-6.38 1.767-6.36 5.16 0 .996.143 1.585.55 2.398.853 1.768 2.438 2.824 7.415 4.978 9.163 3.941 13.085 6.542 15.523 10.24 2.722 4.124 3.332 10.707 1.483 15.603-2.032 5.324-7.07 8.94-14.161 10.139-2.195.386-7.396.325-9.753-.102-5.14-.914-10.016-3.454-13.023-6.786-1.179-1.3-3.474-4.693-3.332-4.937.06-.081.589-.406 1.178-.752.57-.325 2.723-1.564 4.755-2.742l3.677-2.134.772 1.138c1.077 1.646 3.434 3.9 4.856 4.653 4.084 2.153 9.691 1.849 12.455-.63 1.178-1.077 1.666-2.194 1.666-3.84 0-1.483-.183-2.133-.955-3.25-.996-1.423-3.028-2.622-8.798-5.12-6.603-2.845-9.447-4.613-12.048-7.417-1.504-1.625-2.926-4.226-3.515-6.4-.488-1.808-.61-6.339-.224-8.167 1.362-6.38 6.177-10.83 13.126-12.15 2.255-.427 7.497-.264 9.711.284z"/></g></svg>