<svg xmlns="http://www.w3.org/2000/svg" width="128" height="128"><path d="M64 0l56.561 31.995v64.01L64 128 7.438 96.005v-64.01z" fill="#fff" stroke-width=".213"/><path d="M110.466 93.786l-44.588 25.25V99.399l27.79-15.304zm3.052-2.754V38.27l-16.307 9.412V81.62zm-96.155 2.754l44.588 25.228V99.378l-27.79-15.283zm-3.052-2.754V38.27l16.307 9.412V81.62zm1.9-56.177l45.74-25.87v18.997L32.646 44.097l-.235.128zm95.386 0L65.878 8.985v18.997l29.284 16.136.235.128z" fill="#8ed6fb" stroke-width=".213"/><path d="M61.951 94.917l-27.406-15.09v-29.86l27.406 15.815zm3.927 0l27.406-15.07v-29.88L65.878 65.781zM63.915 64.65zM36.38 46.509l27.534-15.133 27.512 15.133-27.512 15.88z" fill="#1c78c0" stroke-width=".213"/></svg>